<?xml version="1.0" encoding="utf-8"?>
<!-- Generator: Adobe Illustrator 23.0.1, SVG Export Plug-In . SVG Version: 6.00 Build 0)  -->
<svg version="1.1" id="Capa_1" xmlns="http://www.w3.org/2000/svg" xmlns:xlink="http://www.w3.org/1999/xlink" x="0px" y="0px"
	 viewBox="0 0 18.1 17.8" style="enable-background:new 0 0 18.1 17.8;" xml:space="preserve">
<style type="text/css">
	.st0{fill:#231F20;}
	.st1{fill:#FFFFFF;}
	.st2{fill:#231F20;stroke:#FFFFFF;stroke-width:0.5;stroke-miterlimit:10;}
	.st3{fill:#11D5EF;}
	.st4{opacity:0.8;}
	.st5{fill:#4C4759;}
	.st6{opacity:0.5;}
	.st7{fill:#4DA9FF;}
	.st8{fill:#FFFEFF;}
	.st9{fill:#63B4FF;}
	.st10{fill:#FF6666;}
	.st11{fill:none;}
	.st12{fill:#F4AF9F;}
	.st13{fill:#E1708B;}
	.st14{opacity:0.72;}
	.st15{fill:url(#SVGID_1_);}
	.st16{fill:url(#SVGID_2_);}
	.st17{fill:url(#SVGID_3_);}
	.st18{fill:url(#SVGID_4_);}
	.st19{fill:#473F65;}
	.st20{fill:#E8EAF1;}
	.st21{fill:#FEFEFE;}
	.st22{fill:#656565;}
	.st23{opacity:0.58;}
	.st24{fill:url(#SVGID_5_);}
	.st25{fill:url(#SVGID_6_);}
	.st26{fill:url(#SVGID_7_);}
	.st27{opacity:0.42;}
	.st28{fill:url(#SVGID_8_);}
	.st29{fill:url(#SVGID_9_);}
	.st30{fill:#231F20;stroke:#FFFFFF;stroke-width:0.25;stroke-miterlimit:10;}
	.st31{fill:none;stroke:#231F20;stroke-linecap:round;stroke-miterlimit:10;}
	.st32{fill:#E71D73;}
	.st33{fill:#9DC44D;}
	.st34{opacity:0.9;fill:#1D1D1B;}
	.st35{fill:none;stroke:#FFFFFF;stroke-width:0.25;stroke-miterlimit:10;}
	.st36{opacity:0.65;}
	.st37{fill-rule:evenodd;clip-rule:evenodd;fill:#11D5EF;}
	.st38{fill:none;stroke:#11D5EF;stroke-width:0.5;stroke-miterlimit:10;}
</style>
<g>
	<circle class="st3" cx="9" cy="8.9" r="8.3"/>
	<g>
		<path class="st1" d="M6.8,8.2c0.1-0.1,0.2-0.1,0.3,0l1.7,1.7V1.6c0-0.1,0.1-0.2,0.2-0.2c0.1,0,0.2,0.1,0.2,0.2v8.3l1.7-1.7
			c0.1-0.1,0.2-0.1,0.3,0c0.1,0.1,0.1,0.2,0,0.3l-2.1,2.1c0,0,0,0-0.1,0.1c0,0-0.1,0-0.1,0c0,0-0.1,0-0.1,0c0,0-0.1,0-0.1-0.1
			L6.8,8.5C6.7,8.4,6.7,8.3,6.8,8.2z"/>
		<path class="st1" d="M5.8,4.3h0.7H7h0.5h0v0c0.1,0,0.2,0.1,0.2,0.2c0,0.1-0.1,0.2-0.2,0.2v0h0H7H6.5H5.8c-0.6,0-1.1,0.5-1.1,1.1
			v6.4c0,0.6,0.5,1.1,1.1,1.1h6.4c0.6,0,1.1-0.5,1.1-1.1V5.8c0-0.6-0.5-1.1-1.1-1.1h-0.7H11h-0.5h0v0c-0.1,0-0.2-0.1-0.2-0.2
			c0-0.1,0.1-0.2,0.2-0.2v0h0H11h0.5h0.7c0.9,0,1.6,0.7,1.6,1.6v6.4c0,0.9-0.7,1.6-1.6,1.6H5.8c-0.9,0-1.6-0.7-1.6-1.6V5.8
			C4.3,5,5,4.3,5.8,4.3z"/>
	</g>
</g>
</svg>
