<?xml version="1.0" encoding="utf-8"?>
<!-- Generator: Adobe Illustrator 23.0.1, SVG Export Plug-In . SVG Version: 6.00 Build 0)  -->
<svg version="1.1" id="Capa_1" xmlns="http://www.w3.org/2000/svg" xmlns:xlink="http://www.w3.org/1999/xlink" x="0px" y="0px"
	 viewBox="0 0 18.1 17.8" style="enable-background:new 0 0 18.1 17.8;" xml:space="preserve">
<style type="text/css">
	.st0{fill:#231F20;}
	.st1{fill:#FFFFFF;}
	.st2{fill:#231F20;stroke:#FFFFFF;stroke-width:0.5;stroke-miterlimit:10;}
	.st3{fill:#11D5EF;}
	.st4{opacity:0.8;}
	.st5{fill:#4C4759;}
	.st6{opacity:0.5;}
	.st7{fill:#4DA9FF;}
	.st8{fill:#FFFEFF;}
	.st9{fill:#63B4FF;}
	.st10{fill:#FF6666;}
	.st11{fill:none;}
	.st12{fill:#F4AF9F;}
	.st13{fill:#E1708B;}
	.st14{opacity:0.72;}
	.st15{fill:url(#SVGID_1_);}
	.st16{fill:url(#SVGID_2_);}
	.st17{fill:url(#SVGID_3_);}
	.st18{fill:url(#SVGID_4_);}
	.st19{fill:#473F65;}
	.st20{fill:#E8EAF1;}
	.st21{fill:#FEFEFE;}
	.st22{fill:#656565;}
	.st23{opacity:0.58;}
	.st24{fill:url(#SVGID_5_);}
	.st25{fill:url(#SVGID_6_);}
	.st26{fill:url(#SVGID_7_);}
	.st27{opacity:0.42;}
	.st28{fill:url(#SVGID_8_);}
	.st29{fill:url(#SVGID_9_);}
	.st30{fill:#231F20;stroke:#FFFFFF;stroke-width:0.25;stroke-miterlimit:10;}
	.st31{fill:none;stroke:#231F20;stroke-linecap:round;stroke-miterlimit:10;}
	.st32{fill:#E71D73;}
	.st33{fill:#9DC44D;}
	.st34{clip-path:url(#SVGID_12_);}
	.st35{clip-path:url(#SVGID_13_);}
	.st36{fill:#737373;}
	.st37{clip-path:url(#SVGID_20_);}
	.st38{clip-path:url(#SVGID_21_);}
	.st39{opacity:0.9;fill:#1D1D1B;}
	.st40{fill:none;stroke:#FFFFFF;stroke-width:0.25;stroke-miterlimit:10;}
</style>
<g>
	<g>
		<path class="st1" d="M9,5.7c-3.2,0-5.7,2.6-5.7,5.7s2.6,5.7,5.7,5.7s5.7-2.6,5.7-5.7S12.2,5.7,9,5.7z M9,16.7
			c-2.9,0-5.3-2.4-5.3-5.3c0-2.9,2.4-5.3,5.3-5.3c2.9,0,5.3,2.4,5.3,5.3C14.3,14.3,11.9,16.7,9,16.7z"/>
		<path class="st1" d="M6.3,5.8c0.1,0,0.1,0,0.2,0C7.3,5.4,8.1,5.1,9,5.1c0.9,0,1.8,0.2,2.5,0.6c0,0,0.1,0,0.1,0c0.1,0,0.1,0,0.1,0
			c0.1,0,0.1-0.1,0.1-0.2C11.9,5.4,12,5.2,12,5V3.6C12,2,10.6,0.7,9,0.7C7.4,0.7,6.1,2,6.1,3.6V5c0,0.2,0,0.4,0.1,0.6
			C6.2,5.7,6.2,5.8,6.3,5.8z M6.6,3.6c0-1.4,1.1-2.5,2.5-2.5c1.4,0,2.5,1.1,2.5,2.5V5c0,0.1,0,0.1,0,0.2C10.7,4.9,9.9,4.7,9,4.7
			c-0.8,0-1.7,0.2-2.5,0.6c0-0.1,0-0.1,0-0.2V3.6z"/>
		<path class="st1" d="M9,11.7c-0.6,0-1.1,0.5-1.1,1.1c0,0.4,0.2,0.7,0.5,0.9v1.7c0,0.4,0.3,0.7,0.7,0.7c0.4,0,0.7-0.3,0.7-0.7v-1.7
			c0.3-0.2,0.5-0.5,0.5-0.9C10.2,12.3,9.7,11.7,9,11.7z M9.3,13.5c-0.1,0-0.1,0.2-0.1,0.3c0,0,0,0,0,0v1.7c0,0.1-0.1,0.2-0.2,0.2
			c-0.1,0-0.2-0.1-0.2-0.2v-1.7c0,0,0,0,0,0c0-0.1,0-0.2-0.1-0.3c-0.2-0.1-0.3-0.3-0.3-0.6c0-0.4,0.3-0.7,0.7-0.7
			c0.4,0,0.7,0.3,0.7,0.7C9.7,13.1,9.6,13.3,9.3,13.5z"/>
	</g>
</g>
</svg>
