<?xml version="1.0" encoding="utf-8"?>
<!-- Generator: Adobe Illustrator 23.0.1, SVG Export Plug-In . SVG Version: 6.00 Build 0)  -->
<svg version="1.1" id="Capa_1" xmlns="http://www.w3.org/2000/svg" xmlns:xlink="http://www.w3.org/1999/xlink" x="0px" y="0px"
	 viewBox="0 0 267.9 80.1" style="enable-background:new 0 0 267.9 80.1;" xml:space="preserve">
<style type="text/css">
	.st0{fill:#231F20;}
	.st1{fill:#FFFFFF;}
	.st2{fill:#231F20;stroke:#FFFFFF;stroke-width:0.5;stroke-miterlimit:10;}
	.st3{fill:#11D5EF;}
	.st4{opacity:0.8;}
	.st5{fill:#4C4759;}
	.st6{opacity:0.5;}
	.st7{fill:#4DA9FF;}
	.st8{fill:#FFFEFF;}
	.st9{fill:#63B4FF;}
	.st10{fill:#FF6666;}
	.st11{fill:none;}
	.st12{fill:#F4AF9F;}
	.st13{fill:#E1708B;}
	.st14{opacity:0.72;}
	.st15{fill:url(#SVGID_1_);}
	.st16{fill:url(#SVGID_2_);}
	.st17{fill:url(#SVGID_3_);}
	.st18{fill:url(#SVGID_4_);}
	.st19{fill:#473F65;}
	.st20{fill:#E8EAF1;}
	.st21{fill:#FEFEFE;}
	.st22{fill:#656565;}
	.st23{opacity:0.58;}
	.st24{fill:url(#SVGID_5_);}
	.st25{fill:url(#SVGID_6_);}
	.st26{fill:url(#SVGID_7_);}
	.st27{opacity:0.42;}
	.st28{fill:url(#SVGID_8_);}
	.st29{fill:url(#SVGID_9_);}
	.st30{fill:#231F20;stroke:#FFFFFF;stroke-width:0.25;stroke-miterlimit:10;}
	.st31{fill:none;stroke:#231F20;stroke-linecap:round;stroke-miterlimit:10;}
	.st32{fill:#E71D73;}
	.st33{fill:#9DC44D;}
	.st34{clip-path:url(#SVGID_12_);}
	.st35{clip-path:url(#SVGID_13_);}
	.st36{fill:#737373;}
	.st37{clip-path:url(#SVGID_20_);}
	.st38{clip-path:url(#SVGID_21_);}
	.st39{opacity:0.9;fill:#1D1D1B;}
	.st40{fill:none;stroke:#FFFFFF;stroke-width:0.25;stroke-miterlimit:10;}
</style>
<g>
	<path class="st3" d="M181.9,15.5c-0.5,0-1,0-1.5,0.1v0c-4.6,0.4-8.6,2.6-11.4,5.8c-2.8-3.3-6.9-5.5-11.4-5.8v0
		c-0.5,0-1-0.1-1.5-0.1c-9.3,0-16.9,7.6-16.9,16.9l0,0v16.9h8V32.4l0,0c0-4.9,4-8.8,8.8-8.8s8.8,4,8.8,8.8v16.9h0.1h7.9h0.1V32.4
		c0-4.9,4-8.8,8.8-8.8s8.8,4,8.8,8.8l0,0v16.9h8V32.4l0,0C198.8,23.1,191.2,15.5,181.9,15.5z"/>
	<path class="st3" d="M44.5,17.2c1.1-3.4,4.3-5.8,8.1-5.8V3.7c-9,0-16.2,7.3-16.2,16.2v6.1v6.8h0V49H44V32.8c0-4.7,3.8-8.5,8.5-8.5
		v-7.7c-3.1,0-6,0.9-8.4,2.4C44.1,18.3,44.3,17.7,44.5,17.2z"/>
	<path class="st1" d="M54.8,49.1V16.4h8.1v3.9c0.7-1.1,1.4-2,2.2-2.6c0.8-0.6,1.6-1.1,2.4-1.4c0.8-0.3,1.6-0.5,2.5-0.6
		c0.8-0.1,1.7-0.1,2.6-0.1h1.1v8.8c-0.8-0.1-1.6-0.2-2.4-0.2c-5.3,0-7.9,2.6-7.9,7.9v17H54.8z"/>
	<path class="st1" d="M81.9,35c0.1,2.5,0.9,4.4,2.2,5.9c1.3,1.5,3,2.2,5.1,2.2c1.4,0,2.7-0.3,3.8-1c1.1-0.6,1.8-1.5,2.1-2.7h8.9
		c-1,3.4-2.8,6-5.3,7.8c-2.5,1.8-5.5,2.7-9,2.7C78.7,50,73.2,44,73.2,32.2c0-2.5,0.4-4.8,1.1-6.8c0.7-2,1.7-3.8,3.1-5.2
		c1.3-1.5,3-2.6,4.9-3.4c1.9-0.8,4.2-1.2,6.7-1.2c5,0,8.9,1.6,11.5,4.8c2.6,3.2,3.9,8.1,3.9,14.6H81.9z M95.5,29.6
		c0-1.2-0.3-2.2-0.6-3.2c-0.4-0.9-0.9-1.7-1.5-2.3c-0.6-0.6-1.3-1-2.1-1.3c-0.8-0.3-1.6-0.4-2.5-0.4c-1.7,0-3.2,0.6-4.5,1.9
		c-1.3,1.3-2,3-2.2,5.3H95.5z"/>
	<path class="st1" d="M114.9,35c0.1,2.5,0.9,4.4,2.2,5.9c1.3,1.5,3,2.2,5.1,2.2c1.4,0,2.7-0.3,3.8-1c1.1-0.6,1.8-1.5,2.1-2.7h8.9
		c-1,3.4-2.8,6-5.3,7.8c-2.5,1.8-5.5,2.7-9,2.7c-10.9,0-16.3-5.9-16.3-17.8c0-2.5,0.4-4.8,1.1-6.8c0.7-2,1.7-3.8,3.1-5.2
		c1.3-1.5,3-2.6,4.9-3.4c1.9-0.8,4.2-1.2,6.7-1.2c5,0,8.9,1.6,11.5,4.8c2.6,3.2,3.9,8.1,3.9,14.6H114.9z M128.5,29.6
		c0-1.2-0.3-2.2-0.6-3.2c-0.4-0.9-0.9-1.7-1.5-2.3c-0.6-0.6-1.3-1-2.1-1.3c-0.8-0.3-1.6-0.4-2.5-0.4c-1.7,0-3.2,0.6-4.5,1.9
		c-1.3,1.3-2,3-2.2,5.3H128.5z"/>
	<path class="st1" d="M209.2,35c0.1,2.5,0.9,4.4,2.2,5.9c1.3,1.5,3,2.2,5.1,2.2c1.4,0,2.7-0.3,3.8-1c1.1-0.6,1.8-1.5,2.1-2.7h8.9
		c-1,3.4-2.8,6-5.3,7.8c-2.5,1.8-5.5,2.7-9,2.7c-10.9,0-16.3-5.9-16.3-17.8c0-2.5,0.4-4.8,1.1-6.8c0.7-2,1.7-3.8,3.1-5.2
		c1.3-1.5,3-2.6,4.9-3.4c1.9-0.8,4.2-1.2,6.7-1.2c5,0,8.9,1.6,11.5,4.8c2.6,3.2,3.9,8.1,3.9,14.6H209.2z M222.8,29.6
		c0-1.2-0.3-2.2-0.6-3.2c-0.4-0.9-0.9-1.7-1.5-2.3c-0.6-0.6-1.3-1-2.1-1.3c-0.8-0.3-1.6-0.4-2.5-0.4c-1.7,0-3.2,0.6-4.5,1.9
		c-1.3,1.3-2,3-2.2,5.3H222.8z"/>
	<g>
		<path class="st1" d="M35.2,72.5V61.3h2.2v11.2H35.2z"/>
		<path class="st1" d="M38.4,63.3v-2h2.2v2H38.4z M38.4,72.5v-8.2h2.2v8.2H38.4z"/>
		<path class="st1" d="M41.7,72.5V61.3h2.1v4.1c0.6-0.9,1.4-1.3,2.4-1.3c0.5,0,1,0.1,1.4,0.3c0.4,0.2,0.8,0.5,1.1,0.9
			c0.3,0.4,0.5,0.8,0.7,1.3c0.1,0.5,0.2,1.1,0.2,1.7c0,0.7-0.1,1.3-0.3,1.9c-0.2,0.5-0.4,1-0.7,1.4c-0.3,0.4-0.7,0.7-1.1,0.9
			c-0.4,0.2-0.9,0.3-1.4,0.3c-1,0-1.8-0.4-2.3-1.2l0,1H41.7z M45.6,71c0.5,0,1-0.2,1.3-0.7c0.3-0.5,0.5-1.1,0.5-1.8
			c0-1.7-0.6-2.5-1.9-2.5c-1.2,0-1.8,0.9-1.8,2.7c0,0.7,0.2,1.3,0.5,1.7C44.6,70.8,45.1,71,45.6,71z"/>
		<path class="st1" d="M52.5,69c0,0.6,0.2,1.1,0.5,1.5c0.3,0.4,0.8,0.6,1.3,0.6c0.4,0,0.7-0.1,0.9-0.2c0.3-0.2,0.4-0.4,0.5-0.7h2.2
			c-0.3,0.8-0.7,1.5-1.3,2c-0.6,0.5-1.4,0.7-2.3,0.7c-2.7,0-4.1-1.5-4.1-4.5c0-0.6,0.1-1.2,0.3-1.7c0.2-0.5,0.4-1,0.8-1.3
			c0.3-0.4,0.8-0.6,1.2-0.8c0.5-0.2,1.1-0.3,1.7-0.3c1.3,0,2.2,0.4,2.9,1.2c0.7,0.8,1,2,1,3.7H52.5z M56,67.6c0-0.3-0.1-0.6-0.2-0.8
			c-0.1-0.2-0.2-0.4-0.4-0.6c-0.2-0.2-0.3-0.3-0.5-0.3c-0.2-0.1-0.4-0.1-0.6-0.1c-0.4,0-0.8,0.2-1.1,0.5c-0.3,0.3-0.5,0.8-0.5,1.3
			H56z"/>
		<path class="st1" d="M59,72.5v-8.2h2v1c0.2-0.3,0.4-0.5,0.6-0.7c0.2-0.2,0.4-0.3,0.6-0.4c0.2-0.1,0.4-0.1,0.6-0.2
			c0.2,0,0.4,0,0.7,0h0.3v2.2c-0.2,0-0.4-0.1-0.6-0.1c-1.3,0-2,0.7-2,2v4.3H59z"/>
		<path class="st1" d="M69.1,67.1h2v2.3c0,0.4-0.1,0.8-0.2,1.2c-0.1,0.4-0.3,0.7-0.6,1.1c-0.3,0.3-0.6,0.5-1,0.7
			c-0.4,0.2-0.9,0.3-1.5,0.3c-0.6,0-1.1-0.1-1.5-0.3c-0.4-0.2-0.8-0.4-1-0.7c-0.3-0.3-0.5-0.7-0.6-1.1c-0.1-0.4-0.2-0.8-0.2-1.3
			v-7.4h2.2v2.2h4.5v1.5h-4.5v3.4c0,0.5,0.1,0.9,0.3,1.2c0.2,0.3,0.5,0.4,1,0.4c0.4,0,0.8-0.1,1-0.4c0.2-0.3,0.3-0.7,0.3-1.2V67.1z"
			/>
		<path class="st1" d="M77.2,72.5c-0.1-0.2-0.1-0.5-0.1-0.7c-0.3,0.3-0.6,0.5-1,0.7c-0.4,0.2-0.9,0.3-1.5,0.3
			c-0.9,0-1.6-0.2-2.1-0.6c-0.4-0.4-0.7-1-0.7-1.6c0-0.6,0.1-1.1,0.3-1.4c0.2-0.4,0.4-0.6,0.8-0.8c0.3-0.2,0.7-0.3,1.2-0.4
			c0.5-0.1,1-0.2,1.5-0.3c0.5-0.1,0.9-0.2,1.1-0.3c0.2-0.1,0.3-0.3,0.3-0.6c0-0.3-0.1-0.5-0.4-0.6c-0.3-0.2-0.6-0.2-1-0.2
			c-0.5,0-0.9,0.1-1.1,0.3c-0.2,0.2-0.4,0.5-0.4,0.9h-2c0-0.4,0.1-0.8,0.2-1.2s0.3-0.7,0.6-0.9c0.3-0.3,0.7-0.5,1.1-0.6
			c0.5-0.1,1-0.2,1.7-0.2c0.6,0,1.2,0.1,1.6,0.2c0.4,0.1,0.8,0.4,1.1,0.6c0.3,0.3,0.5,0.6,0.6,1c0.1,0.4,0.2,0.9,0.2,1.4v5.2H77.2z
			 M77.1,68.5c-0.1,0.1-0.3,0.2-0.5,0.3c-0.2,0.1-0.5,0.1-0.9,0.2c-0.6,0.1-1.1,0.3-1.3,0.5c-0.2,0.2-0.4,0.5-0.4,0.8
			c0,0.6,0.4,0.9,1.1,0.9c0.3,0,0.5,0,0.8-0.1c0.2-0.1,0.4-0.2,0.6-0.4c0.2-0.2,0.3-0.4,0.4-0.6c0.1-0.2,0.2-0.4,0.2-0.7L77.1,68.5z
			"/>
		<path class="st1" d="M86,72.5l0-1c-0.5,0.8-1.3,1.2-2.3,1.2c-0.5,0-1-0.1-1.4-0.3c-0.4-0.2-0.8-0.5-1.1-0.9
			c-0.3-0.4-0.6-0.8-0.7-1.4c-0.2-0.5-0.3-1.2-0.3-1.9c0-0.6,0.1-1.2,0.2-1.7c0.2-0.5,0.4-1,0.7-1.3c0.3-0.4,0.6-0.7,1.1-0.9
			c0.4-0.2,0.9-0.3,1.4-0.3c1,0,1.8,0.4,2.4,1.3v-4.1h2.1v11.2H86z M84.2,71c0.5,0,1-0.2,1.3-0.7c0.4-0.4,0.5-1,0.5-1.7
			c0-1.8-0.6-2.7-1.8-2.7c-1.2,0-1.9,0.8-1.9,2.5c0,0.7,0.2,1.3,0.5,1.8C83.2,70.7,83.6,71,84.2,71z"/>
		<path class="st1" d="M93.4,76.4V64.3h2.1l0,1c0.5-0.8,1.3-1.2,2.3-1.2c0.5,0,1,0.1,1.4,0.3c0.4,0.2,0.8,0.5,1.1,0.9
			c0.3,0.4,0.6,0.8,0.7,1.4c0.2,0.5,0.3,1.2,0.3,1.9c0,0.6-0.1,1.2-0.2,1.7c-0.1,0.5-0.4,1-0.7,1.3c-0.3,0.4-0.6,0.7-1.1,0.9
			c-0.4,0.2-0.9,0.3-1.4,0.3c-1,0-1.8-0.4-2.4-1.3v5H93.4z M97.3,70.9c1.2,0,1.9-0.8,1.9-2.5c0-0.7-0.2-1.3-0.5-1.8
			c-0.3-0.5-0.8-0.7-1.3-0.7c-0.5,0-1,0.2-1.3,0.7c-0.4,0.4-0.5,1-0.5,1.7C95.5,70,96.1,70.9,97.3,70.9z"/>
		<path class="st1" d="M107.4,72.5c-0.1-0.2-0.1-0.5-0.1-0.7c-0.3,0.3-0.6,0.5-1,0.7c-0.4,0.2-0.9,0.3-1.5,0.3
			c-0.9,0-1.6-0.2-2.1-0.6c-0.4-0.4-0.7-1-0.7-1.6c0-0.6,0.1-1.1,0.3-1.4c0.2-0.4,0.4-0.6,0.8-0.8c0.3-0.2,0.7-0.3,1.2-0.4
			c0.5-0.1,1-0.2,1.5-0.3c0.5-0.1,0.9-0.2,1.1-0.3c0.2-0.1,0.3-0.3,0.3-0.6c0-0.3-0.1-0.5-0.4-0.6c-0.3-0.2-0.6-0.2-1-0.2
			c-0.5,0-0.9,0.1-1.1,0.3c-0.2,0.2-0.4,0.5-0.4,0.9h-2c0-0.4,0.1-0.8,0.2-1.2c0.1-0.4,0.3-0.7,0.6-0.9c0.3-0.3,0.7-0.5,1.1-0.6
			c0.5-0.1,1-0.2,1.7-0.2c0.6,0,1.2,0.1,1.6,0.2c0.4,0.1,0.8,0.4,1.1,0.6c0.3,0.3,0.5,0.6,0.6,1c0.1,0.4,0.2,0.9,0.2,1.4v5.2H107.4z
			 M107.2,68.5c-0.1,0.1-0.3,0.2-0.5,0.3c-0.2,0.1-0.5,0.1-0.9,0.2c-0.6,0.1-1.1,0.3-1.3,0.5c-0.2,0.2-0.4,0.5-0.4,0.8
			c0,0.6,0.4,0.9,1.1,0.9c0.3,0,0.5,0,0.8-0.1c0.2-0.1,0.4-0.2,0.6-0.4c0.2-0.2,0.3-0.4,0.4-0.6c0.1-0.2,0.2-0.4,0.2-0.7L107.2,68.5
			z"/>
		<path class="st1" d="M110.4,72.5v-8.2h2v1c0.2-0.3,0.4-0.5,0.6-0.7c0.2-0.2,0.4-0.3,0.6-0.4c0.2-0.1,0.4-0.1,0.6-0.2
			c0.2,0,0.4,0,0.7,0h0.3v2.2c-0.2,0-0.4-0.1-0.6-0.1c-1.3,0-2,0.7-2,2v4.3H110.4z"/>
		<path class="st1" d="M120.7,72.5c-0.1-0.2-0.1-0.5-0.1-0.7c-0.3,0.3-0.6,0.5-1,0.7c-0.4,0.2-0.9,0.3-1.5,0.3
			c-0.9,0-1.6-0.2-2.1-0.6c-0.4-0.4-0.7-1-0.7-1.6c0-0.6,0.1-1.1,0.3-1.4c0.2-0.4,0.5-0.6,0.8-0.8c0.3-0.2,0.7-0.3,1.2-0.4
			c0.5-0.1,1-0.2,1.5-0.3c0.5-0.1,0.9-0.2,1.1-0.3c0.2-0.1,0.3-0.3,0.3-0.6c0-0.3-0.1-0.5-0.4-0.6c-0.3-0.2-0.6-0.2-1-0.2
			c-0.5,0-0.9,0.1-1.1,0.3c-0.2,0.2-0.4,0.5-0.4,0.9h-2c0-0.4,0.1-0.8,0.2-1.2c0.1-0.4,0.3-0.7,0.6-0.9c0.3-0.3,0.7-0.5,1.1-0.6
			c0.5-0.1,1-0.2,1.7-0.2c0.6,0,1.2,0.1,1.6,0.2c0.4,0.1,0.8,0.4,1.1,0.6s0.5,0.6,0.6,1c0.1,0.4,0.2,0.9,0.2,1.4v5.2H120.7z
			 M120.6,68.5c-0.1,0.1-0.3,0.2-0.5,0.3c-0.2,0.1-0.5,0.1-0.9,0.2c-0.6,0.1-1.1,0.3-1.3,0.5c-0.2,0.2-0.4,0.5-0.4,0.8
			c0,0.6,0.4,0.9,1.1,0.9c0.3,0,0.5,0,0.8-0.1c0.2-0.1,0.4-0.2,0.6-0.4c0.2-0.2,0.3-0.4,0.4-0.6c0.1-0.2,0.2-0.4,0.2-0.7L120.6,68.5
			z"/>
		<path class="st1" d="M128.1,72.5V61.3h2.2v11.2H128.1z"/>
		<path class="st1" d="M135.3,72.7c-0.7,0-1.3-0.1-1.8-0.3c-0.5-0.2-1-0.5-1.3-0.9c-0.4-0.4-0.6-0.8-0.8-1.4
			c-0.2-0.5-0.3-1.1-0.3-1.8c0-0.6,0.1-1.2,0.3-1.8c0.2-0.5,0.5-1,0.8-1.4c0.4-0.4,0.8-0.7,1.3-0.9c0.5-0.2,1.1-0.3,1.8-0.3
			c0.6,0,1.2,0.1,1.7,0.3c0.5,0.2,0.9,0.5,1.3,0.9c0.4,0.4,0.6,0.8,0.8,1.4c0.2,0.5,0.3,1.1,0.3,1.8c0,0.7-0.1,1.3-0.3,1.8
			c-0.2,0.5-0.5,1-0.8,1.4s-0.8,0.7-1.3,0.9C136.5,72.6,135.9,72.7,135.3,72.7z M135.3,70.9c1.3,0,2-0.8,2-2.5c0-1.7-0.7-2.5-2-2.5
			c-1.3,0-2,0.8-2,2.5C133.3,70.1,134,70.9,135.3,70.9z"/>
		<path class="st1" d="M145.3,66.8c-0.1-0.4-0.2-0.7-0.4-0.8c-0.2-0.2-0.6-0.3-1-0.3c-0.4,0-0.8,0.1-1,0.2c-0.2,0.1-0.3,0.3-0.3,0.5
			c0,0.2,0.1,0.4,0.3,0.5c0.2,0.1,0.6,0.3,1,0.4c0.7,0.2,1.3,0.4,1.8,0.5c0.5,0.1,0.9,0.3,1.2,0.5c0.3,0.2,0.5,0.4,0.6,0.7
			c0.1,0.3,0.2,0.7,0.2,1.1c0,0.7-0.3,1.3-0.9,1.8c-0.6,0.5-1.5,0.7-2.7,0.7c-0.6,0-1.1-0.1-1.6-0.2c-0.5-0.1-0.9-0.3-1.2-0.6
			c-0.3-0.3-0.6-0.6-0.8-0.9c-0.2-0.4-0.3-0.7-0.3-1.2h2.2c0,0.4,0.2,0.7,0.5,0.9c0.3,0.2,0.7,0.3,1.2,0.3c0.4,0,0.8-0.1,1.1-0.2
			c0.3-0.1,0.4-0.3,0.4-0.6c0-0.3-0.1-0.5-0.3-0.7c-0.2-0.1-0.5-0.3-1-0.4c-0.8-0.2-1.4-0.4-1.9-0.6c-0.5-0.2-0.9-0.4-1.1-0.6
			c-0.3-0.2-0.5-0.5-0.6-0.8c-0.1-0.3-0.1-0.6-0.1-0.9c0-0.3,0.1-0.6,0.2-0.9c0.1-0.3,0.3-0.5,0.6-0.7c0.3-0.2,0.6-0.4,1.1-0.5
			c0.4-0.1,1-0.2,1.6-0.2c1.2,0,2,0.2,2.6,0.7c0.5,0.5,0.8,1.1,0.9,2H145.3z"/>
		<path class="st1" d="M157.7,72.5c-0.1-0.2-0.1-0.5-0.1-0.7c-0.3,0.3-0.6,0.5-1,0.7c-0.4,0.2-0.9,0.3-1.5,0.3
			c-0.9,0-1.6-0.2-2.1-0.6c-0.4-0.4-0.7-1-0.7-1.6c0-0.6,0.1-1.1,0.3-1.4c0.2-0.4,0.4-0.6,0.8-0.8c0.3-0.2,0.7-0.3,1.2-0.4
			c0.5-0.1,1-0.2,1.5-0.3c0.5-0.1,0.9-0.2,1.1-0.3c0.2-0.1,0.3-0.3,0.3-0.6c0-0.3-0.1-0.5-0.4-0.6c-0.3-0.2-0.6-0.2-1-0.2
			c-0.5,0-0.9,0.1-1.1,0.3c-0.2,0.2-0.4,0.5-0.4,0.9h-2c0-0.4,0.1-0.8,0.2-1.2c0.1-0.4,0.3-0.7,0.6-0.9c0.3-0.3,0.7-0.5,1.1-0.6
			c0.5-0.1,1-0.2,1.7-0.2c0.6,0,1.2,0.1,1.6,0.2c0.4,0.1,0.8,0.4,1.1,0.6c0.3,0.3,0.5,0.6,0.6,1c0.1,0.4,0.2,0.9,0.2,1.4v5.2H157.7z
			 M157.6,68.5c-0.1,0.1-0.3,0.2-0.5,0.3c-0.2,0.1-0.5,0.1-0.9,0.2c-0.6,0.1-1.1,0.3-1.3,0.5c-0.2,0.2-0.4,0.5-0.4,0.8
			c0,0.6,0.4,0.9,1.1,0.9c0.3,0,0.5,0,0.8-0.1c0.2-0.1,0.4-0.2,0.6-0.4c0.2-0.2,0.3-0.4,0.4-0.6c0.1-0.2,0.2-0.4,0.2-0.7L157.6,68.5
			z"/>
		<path class="st1" d="M166.1,72.5v-1.2c-0.6,0.9-1.4,1.4-2.6,1.4c-0.4,0-0.8-0.1-1.1-0.2c-0.3-0.1-0.6-0.4-0.9-0.6
			c-0.2-0.3-0.4-0.6-0.6-1c-0.1-0.4-0.2-0.8-0.2-1.2v-5.4h2.2v5.1c0,1,0.5,1.5,1.4,1.5c0.6,0,1-0.2,1.3-0.5c0.3-0.3,0.4-0.8,0.4-1.3
			v-4.7h2.2v8.2H166.1z"/>
		<path class="st1" d="M173.9,67.1h2v2.3c0,0.4-0.1,0.8-0.2,1.2c-0.1,0.4-0.3,0.7-0.6,1.1c-0.3,0.3-0.6,0.5-1,0.7
			c-0.4,0.2-0.9,0.3-1.5,0.3c-0.6,0-1.1-0.1-1.5-0.3c-0.4-0.2-0.8-0.4-1-0.7s-0.5-0.7-0.6-1.1c-0.1-0.4-0.2-0.8-0.2-1.3v-7.4h2.2
			v2.2h4.5v1.5h-4.5v3.4c0,0.5,0.1,0.9,0.3,1.2c0.2,0.3,0.5,0.4,1,0.4c0.4,0,0.7-0.1,1-0.4c0.2-0.3,0.3-0.7,0.3-1.2V67.1z"/>
		<path class="st1" d="M180.9,72.7c-0.7,0-1.3-0.1-1.8-0.3c-0.5-0.2-1-0.5-1.3-0.9c-0.4-0.4-0.6-0.8-0.8-1.4
			c-0.2-0.5-0.3-1.1-0.3-1.8c0-0.6,0.1-1.2,0.3-1.8c0.2-0.5,0.5-1,0.8-1.4s0.8-0.7,1.3-0.9c0.5-0.2,1.1-0.3,1.8-0.3
			c0.6,0,1.2,0.1,1.7,0.3c0.5,0.2,0.9,0.5,1.3,0.9c0.4,0.4,0.6,0.8,0.8,1.4c0.2,0.5,0.3,1.1,0.3,1.8c0,0.7-0.1,1.3-0.3,1.8
			c-0.2,0.5-0.5,1-0.8,1.4c-0.4,0.4-0.8,0.7-1.3,0.9C182.1,72.6,181.5,72.7,180.9,72.7z M180.9,70.9c1.3,0,2-0.8,2-2.5
			c0-1.7-0.7-2.5-2-2.5c-1.3,0-2,0.8-2,2.5C178.9,70.1,179.6,70.9,180.9,70.9z M179.8,63.3l-0.5-0.9l3.5-2l0.8,1.4L179.8,63.3z"/>
		<path class="st1" d="M191.2,72.5v-5c0-0.6-0.1-1.1-0.3-1.3c-0.2-0.2-0.6-0.3-1.1-0.3c-1.1,0-1.7,0.6-1.7,1.9v4.7H186v-8.2h2.1v1.2
			c0.3-0.5,0.6-0.8,1-1.1c0.4-0.2,1-0.4,1.6-0.4c0.4,0,0.7,0.1,1.1,0.2c0.3,0.1,0.6,0.3,0.9,0.5c0.2,0.2,0.4,0.5,0.6,0.9
			c0.1,0.3,0.2,0.7,0.2,1.2v5.7H191.2z"/>
		<path class="st1" d="M198.5,72.7c-0.7,0-1.3-0.1-1.8-0.3c-0.5-0.2-1-0.5-1.3-0.9c-0.4-0.4-0.6-0.8-0.8-1.4
			c-0.2-0.5-0.3-1.1-0.3-1.8c0-0.6,0.1-1.2,0.3-1.8c0.2-0.5,0.5-1,0.8-1.4s0.8-0.7,1.3-0.9c0.5-0.2,1.1-0.3,1.8-0.3
			c0.6,0,1.2,0.1,1.7,0.3c0.5,0.2,0.9,0.5,1.3,0.9c0.4,0.4,0.6,0.8,0.8,1.4c0.2,0.5,0.3,1.1,0.3,1.8c0,0.7-0.1,1.3-0.3,1.8
			c-0.2,0.5-0.5,1-0.8,1.4c-0.4,0.4-0.8,0.7-1.3,0.9C199.7,72.6,199.1,72.7,198.5,72.7z M198.5,70.9c1.3,0,2-0.8,2-2.5
			c0-1.7-0.7-2.5-2-2.5c-1.3,0-2,0.8-2,2.5C196.5,70.1,197.2,70.9,198.5,70.9z"/>
		<path class="st1" d="M213.2,72.5v-5c0-0.5-0.1-0.9-0.3-1.2c-0.2-0.3-0.5-0.5-0.9-0.5c-0.4,0-0.7,0.2-1,0.5
			c-0.3,0.3-0.4,0.8-0.4,1.3v4.9h-2.2v-4.9c0-0.3,0-0.6-0.1-0.8c0-0.2-0.1-0.4-0.2-0.5c-0.1-0.1-0.2-0.2-0.4-0.3
			c-0.2-0.1-0.4-0.1-0.6-0.1c-0.9,0-1.3,0.5-1.3,1.6v5h-2.2v-8.2h2v1.2c0.3-0.6,0.6-0.9,1-1.1c0.4-0.2,0.9-0.3,1.4-0.3
			c0.3,0,0.5,0,0.7,0.1c0.2,0,0.4,0.1,0.6,0.2c0.2,0.1,0.3,0.2,0.5,0.4c0.2,0.2,0.3,0.4,0.5,0.6c0.2-0.5,0.5-0.8,0.9-1
			c0.4-0.2,0.8-0.3,1.3-0.3c0.4,0,0.8,0.1,1.1,0.2c0.3,0.1,0.6,0.3,0.9,0.6c0.2,0.3,0.4,0.5,0.6,0.9c0.1,0.3,0.2,0.7,0.2,1.1v5.7
			H213.2z"/>
		<path class="st1" d="M220.4,72.7c-0.7,0-1.3-0.1-1.8-0.3c-0.5-0.2-1-0.5-1.3-0.9c-0.4-0.4-0.6-0.8-0.8-1.4
			c-0.2-0.5-0.3-1.1-0.3-1.8c0-0.6,0.1-1.2,0.3-1.8s0.5-1,0.8-1.4c0.4-0.4,0.8-0.7,1.3-0.9c0.5-0.2,1.1-0.3,1.8-0.3
			c0.6,0,1.2,0.1,1.7,0.3c0.5,0.2,0.9,0.5,1.3,0.9c0.4,0.4,0.6,0.8,0.8,1.4c0.2,0.5,0.3,1.1,0.3,1.8c0,0.7-0.1,1.3-0.3,1.8
			c-0.2,0.5-0.5,1-0.8,1.4s-0.8,0.7-1.3,0.9C221.6,72.6,221,72.7,220.4,72.7z M220.4,70.9c1.3,0,2-0.8,2-2.5c0-1.7-0.7-2.5-2-2.5
			c-1.3,0-2,0.8-2,2.5C218.4,70.1,219,70.9,220.4,70.9z"/>
		<path class="st1" d="M230.4,66.8c-0.1-0.4-0.2-0.7-0.4-0.8c-0.2-0.2-0.6-0.3-1-0.3c-0.4,0-0.8,0.1-1,0.2c-0.2,0.1-0.3,0.3-0.3,0.5
			c0,0.2,0.1,0.4,0.3,0.5c0.2,0.1,0.6,0.3,1,0.4c0.7,0.2,1.3,0.4,1.8,0.5c0.5,0.1,0.9,0.3,1.2,0.5c0.3,0.2,0.5,0.4,0.6,0.7
			c0.1,0.3,0.2,0.7,0.2,1.1c0,0.7-0.3,1.3-0.9,1.8c-0.6,0.5-1.5,0.7-2.7,0.7c-0.6,0-1.1-0.1-1.6-0.2c-0.5-0.1-0.9-0.3-1.2-0.6
			c-0.3-0.3-0.6-0.6-0.8-0.9c-0.2-0.4-0.3-0.7-0.3-1.2h2.2c0,0.4,0.2,0.7,0.5,0.9c0.3,0.2,0.7,0.3,1.2,0.3c0.4,0,0.8-0.1,1.1-0.2
			c0.3-0.1,0.4-0.3,0.4-0.6c0-0.3-0.1-0.5-0.3-0.7c-0.2-0.1-0.5-0.3-1-0.4c-0.8-0.2-1.4-0.4-1.9-0.6c-0.5-0.2-0.9-0.4-1.1-0.6
			c-0.3-0.2-0.5-0.5-0.6-0.8c-0.1-0.3-0.1-0.6-0.1-0.9c0-0.3,0.1-0.6,0.2-0.9c0.1-0.3,0.3-0.5,0.6-0.7c0.3-0.2,0.6-0.4,1.1-0.5
			c0.4-0.1,1-0.2,1.6-0.2c1.2,0,2,0.2,2.6,0.7s0.8,1.1,0.9,2H230.4z"/>
	</g>
</g>
</svg>
