<?xml version="1.0" encoding="utf-8"?>
<!-- Generator: Adobe Illustrator 23.0.1, SVG Export Plug-In . SVG Version: 6.00 Build 0)  -->
<svg version="1.1" id="Capa_1" xmlns="http://www.w3.org/2000/svg" xmlns:xlink="http://www.w3.org/1999/xlink" x="0px" y="0px"
	 viewBox="0 0 18.1 17.8" style="enable-background:new 0 0 18.1 17.8;" xml:space="preserve">
<style type="text/css">
	.st0{fill:#231F20;}
	.st1{fill:#FFFFFF;}
	.st2{fill:#231F20;stroke:#FFFFFF;stroke-width:0.5;stroke-miterlimit:10;}
	.st3{fill:#11D5EF;}
	.st4{opacity:0.8;}
	.st5{fill:#4C4759;}
	.st6{opacity:0.5;}
	.st7{fill:#4DA9FF;}
	.st8{fill:#FFFEFF;}
	.st9{fill:#63B4FF;}
	.st10{fill:#FF6666;}
	.st11{fill:none;}
	.st12{fill:#F4AF9F;}
	.st13{fill:#E1708B;}
	.st14{opacity:0.72;}
	.st15{fill:url(#SVGID_1_);}
	.st16{fill:url(#SVGID_2_);}
	.st17{fill:url(#SVGID_3_);}
	.st18{fill:url(#SVGID_4_);}
	.st19{fill:#473F65;}
	.st20{fill:#E8EAF1;}
	.st21{fill:#FEFEFE;}
	.st22{fill:#656565;}
	.st23{opacity:0.58;}
	.st24{fill:url(#SVGID_5_);}
	.st25{fill:url(#SVGID_6_);}
	.st26{fill:url(#SVGID_7_);}
	.st27{opacity:0.42;}
	.st28{fill:url(#SVGID_8_);}
	.st29{fill:url(#SVGID_9_);}
	.st30{fill:#231F20;stroke:#FFFFFF;stroke-width:0.25;stroke-miterlimit:10;}
	.st31{fill:none;stroke:#231F20;stroke-linecap:round;stroke-miterlimit:10;}
	.st32{fill:#E71D73;}
	.st33{fill:#9DC44D;}
	.st34{clip-path:url(#SVGID_12_);}
	.st35{clip-path:url(#SVGID_13_);}
	.st36{fill:#737373;}
	.st37{clip-path:url(#SVGID_20_);}
	.st38{clip-path:url(#SVGID_21_);}
	.st39{opacity:0.9;fill:#1D1D1B;}
	.st40{fill:none;stroke:#FFFFFF;stroke-width:0.25;stroke-miterlimit:10;}
</style>
<g>
	<g>
		<path class="st1" d="M16.3,17.2H1.8c-0.1,0-0.2-0.1-0.2-0.2l0,0c0,0,0-0.1,0-0.1c0-4.1,3.4-7.5,7.5-7.5c4.1,0,7.5,3.4,7.5,7.5
			c0,0,0,0.1,0,0.1l0,0C16.5,17.1,16.4,17.2,16.3,17.2z M2,16.7h14c-0.1-3.8-3.2-6.9-7-6.9S2.1,12.9,2,16.7z"/>
	</g>
	<g>
		<path class="st1" d="M9,8.6c-2.2,0-4-1.8-4-4s1.8-4,4-4c2.2,0,4,1.8,4,4S11.2,8.6,9,8.6z M9,1.1c-1.9,0-3.5,1.6-3.5,3.5
			S7.1,8.2,9,8.2s3.5-1.6,3.5-3.5S11,1.1,9,1.1z"/>
	</g>
</g>
</svg>
